<svg id="SvgjsSvg1001" width="288" height="288" xmlns="http://www.w3.org/2000/svg" version="1.1" xmlns:xlink="http://www.w3.org/1999/xlink" xmlns:svgjs="http://svgjs.com/svgjs"><defs id="SvgjsDefs1002"></defs><g id="SvgjsG1008" transform="matrix(0.9167,0,0,0.9167,11.995200000000011,11.995200000000011)"><svg xmlns="http://www.w3.org/2000/svg" width="288" height="288" fill="none" viewBox="0 0 14 14"><path fill="#109cf1" fill-rule="evenodd" d="M2 0C0.895431 0 0 0.89543 0 2V12C0 13.1046 0.89543 14 2 14H12C13.1046 14 14 13.1046 14 12V2C14 0.895431 13.1046 0 12 0H2ZM5 2C4.44772 2 4 2.44772 4 3V11C4 11.5523 4.44772 12 5 12C5.55228 12 6 11.5523 6 11V3C6 2.44772 5.55228 2 5 2Z" clip-rule="evenodd" class="colorC2CFE0 svgShape"></path></svg></g></svg>